# xmcd
#
# Track frame offsets: 
#        150
#        9291
#        20130
#        29834
#        43557
#        55747
#        67363
#        77966
#        96543
#        106053
#        118247
#        126354
#        141118
#        152385
#        165888
#        179055
#
# Disc length: 2573 seconds
#
# Revision: 0
# Processed by: cddbd v1.5.2PL0 Copyright (c) Steve Scherf et al.
# Submitted via: ExactAudioCopy v0.99pb5
#
DISCID=e00a0b10
DTITLE=Johnny Cash - Icons
DYEAR=2010
DGENRE=Country
TTITLE0=One More Ride
TTITLE1=My Shoes Keep Walking Back To You
TTITLE2=I Couldn't Keep From Crying
TTITLE3=It Ain't Me Babe
TTITLE4=Understand Your Man
TTITLE5=I Still Miss Someone
TTITLE6=Daddy Sang Bass
TTITLE7=Sunday Mornin' Comin' Down
TTITLE8=When The Roll Is Called Up Yonder
TTITLE9=Far Side Banks Of Jordan
TTITLE10=Five Feet High And Rising
TTITLE11=Nine Pound Hammer
TTITLE12=Green, Green Grass Of Home
TTITLE13=Tennessee Flat-top Box
TTITLE14=Forty Shades Of Green
TTITLE15=The Long Black Veil
EXTD=
EXTT0=
EXTT1=
EXTT2=
EXTT3=
EXTT4=
EXTT5=
EXTT6=
EXTT7=
EXTT8=
EXTT9=
EXTT10=
EXTT11=
EXTT12=
EXTT13=
EXTT14=
EXTT15=
PLAYORDER=
